<svg width="24" height="24" viewBox="0 0 24 24" fill="none" xmlns="http://www.w3.org/2000/svg">
<path d="M1.49976 22.5002L6.56659 17.4334M6.56659 17.4334C7.4333 18.3001 8.46222 18.9876 9.59462 19.4567C10.727 19.9257 11.9407 20.1671 13.1664 20.1671C14.3921 20.1671 15.6058 19.9257 16.7382 19.4567C17.8706 18.9876 18.8996 18.3001 19.7663 17.4334C20.633 16.5667 21.3205 15.5378 21.7895 14.4054C22.2586 13.273 22.5 12.0593 22.5 10.8336C22.5 9.60787 22.2586 8.39417 21.7895 7.26177C21.3205 6.12937 20.633 5.10044 19.7663 4.23374C18.0159 2.48336 15.6418 1.5 13.1664 1.5C10.691 1.5 8.31698 2.48336 6.56659 4.23374C4.81621 5.98412 3.83285 8.35816 3.83285 10.8336C3.83285 13.309 4.81621 15.683 6.56659 17.4334Z" stroke="#0E3F64" stroke-width="2.5" stroke-linecap="round" stroke-linejoin="round"/>
</svg>
